<?xml version="1.0" encoding="UTF-8"?>
<!DOCTYPE svg PUBLIC "-//W3C//DTD SVG 1.1//EN" "http://www.w3.org/Graphics/SVG/1.1/DTD/svg11.dtd">
<!-- Creator: CorelDRAW 2020 (64 Bit) -->
<svg xmlns="http://www.w3.org/2000/svg" xml:space="preserve" width="112.536mm" height="26.7533mm" version="1.1" style="shape-rendering:geometricPrecision; text-rendering:geometricPrecision; image-rendering:optimizeQuality; fill-rule:evenodd; clip-rule:evenodd"
viewBox="0 0 2108.55 501.27"
 xmlns:xlink="http://www.w3.org/1999/xlink"
 xmlns:xodm="http://www.corel.com/coreldraw/odm/2003">
 <defs>
  <style type="text/css">
   <![CDATA[
    .fil1 {fill:#01193F;fill-rule:nonzero}
    .fil0 {fill:url(#id0);fill-rule:nonzero}
   ]]>
  </style>
  <linearGradient id="id0" gradientUnits="userSpaceOnUse" x1="93.5" y1="28.81" x2="368.67" y2="454.88">
   <stop offset="0" style="stop-opacity:1; stop-color:#16C6A9"/>
   <stop offset="1" style="stop-opacity:1; stop-color:#0ABCEB"/>
  </linearGradient>
 </defs>
 <g id="Camada_x0020_1">
  <metadata id="CorelCorpID_0Corel-Layer"/>
  <path class="fil0" d="M427.86 73.41c8.44,8.44 12.66,19.52 12.66,30.61l0 0.05c-0,11.09 -4.22,22.17 -12.66,30.61 -8.46,8.46 -19.54,12.68 -30.63,12.68 -62.86,0 -41.97,15.37 -46.98,35.8 -0.85,5.43 -3.37,10.64 -7.54,14.82 -8.06,8.06 -19.97,9.93 -29.82,5.61 -3.35,-1.31 -6.48,-3.32 -9.18,-6.02 -10.5,-10.5 -10.5,-27.52 0,-38.01 27.1,-27.1 50.31,21.37 50.23,-55.49l0 -0.05c0.01,-11.1 4.23,-22.18 12.66,-30.61 8.46,-8.46 19.55,-12.69 30.63,-12.69 11.08,0 22.17,4.23 30.63,12.68zm-241.08 22.57c6.66,-3.07 14.55,-0.16 17.62,6.5 3.07,6.66 0.17,14.55 -6.49,17.63 -6.66,3.07 -14.55,0.16 -17.63,-6.5 -3.07,-6.67 -0.16,-14.56 6.5,-17.63zm-89.72 88.28c2.57,-6.87 10.23,-10.35 17.1,-7.78 6.87,2.57 10.36,10.22 7.78,17.1 -2.57,6.87 -10.23,10.35 -17.1,7.78 -6.87,-2.58 -10.35,-10.23 -7.78,-17.1zm0.08 132.97c-3,-6.69 -0.01,-14.55 6.68,-17.56 6.7,-3 14.55,-0.02 17.56,6.68 3,6.69 0.01,14.56 -6.69,17.56 -6.69,3 -14.55,0.01 -17.56,-6.68zm90.92 88.59c-6.84,-2.65 -10.24,-10.34 -7.6,-17.18 2.65,-6.84 10.33,-10.25 17.18,-7.61 6.84,2.65 10.25,10.34 7.6,17.19 -2.65,6.84 -10.34,10.25 -17.18,7.6zm130 0.84c-6.72,2.93 -14.55,-0.14 -17.49,-6.87 -2.93,-6.73 0.14,-14.55 6.87,-17.49 6.73,-2.93 14.56,0.14 17.49,6.87 2.93,6.72 -0.14,14.55 -6.87,17.49zm89.26 -92.13c-2.72,6.81 -10.44,10.13 -17.26,7.42 -6.82,-2.72 -10.14,-10.44 -7.42,-17.26 2.72,-6.81 10.45,-10.14 17.26,-7.42 6.81,2.72 10.13,10.44 7.42,17.26zm-1.35 -128.28c2.86,6.76 -0.3,14.55 -7.05,17.41 -6.76,2.86 -14.55,-0.29 -17.42,-7.05 -2.86,-6.76 0.3,-14.55 7.05,-17.41 6.76,-2.86 14.55,0.3 17.41,7.05zm-91.19 -90.23c6.78,2.79 10.02,10.55 7.23,17.34 -2.79,6.79 -10.55,10.02 -17.34,7.23 -6.78,-2.79 -10.02,-10.55 -7.23,-17.34 2.79,-6.79 10.55,-10.03 17.34,-7.23zm-241.37 -22.61c8.44,-8.44 19.52,-12.66 30.61,-12.66l0.05 0c11.09,0 22.17,4.22 30.61,12.66 8.46,8.46 12.68,19.54 12.68,30.63 0,76.98 23.05,28.35 50.21,55.51 10.5,10.5 10.5,27.52 0,38.01 -2.71,2.71 -5.85,4.72 -9.2,6.03 -9.84,4.31 -21.74,2.44 -29.8,-5.62 -4.21,-4.21 -6.72,-9.46 -7.56,-14.92 -4.9,-20.37 15.71,-35.78 -46.94,-35.72l-0.05 0c-11.1,-0.01 -22.18,-4.23 -30.61,-12.66 -8.46,-8.46 -12.69,-19.54 -12.69,-30.63 0,-11.09 4.23,-22.17 12.68,-30.63zm30.63 4.99c-6.54,0.01 -13.1,2.52 -18.11,7.53 -5,5 -7.5,11.56 -7.5,18.11 0,6.55 2.5,13.11 7.5,18.11 5.02,5.02 11.56,7.53 18.08,7.52l0.05 0c6.52,0 13.07,-2.51 18.08,-7.52 5,-5 7.5,-11.56 7.5,-18.11 0,-6.55 -2.5,-13.1 -7.5,-18.11 -5.01,-5.01 -11.56,-7.52 -18.11,-7.53zm-104.04 172.23c0,-11.94 4.85,-22.75 12.69,-30.6l0.03 -0.03c7.84,-7.84 18.66,-12.69 30.6,-12.69 11.96,0 22.79,4.85 30.63,12.69 54.43,54.43 36.34,3.75 74.76,3.75 14.85,0 26.88,12.03 26.88,26.88 0,7.78 -3.31,14.79 -8.59,19.7 -4.91,5.28 -11.91,8.58 -19.69,8.58 -9.22,0 -17.35,-4.64 -22.19,-11.71 -10.66,-11.26 -14.08,-23.14 -51.17,14.02l-0.03 0.03c-7.85,7.84 -18.67,12.69 -30.59,12.69 -11.96,0 -22.79,-4.85 -30.63,-12.69 -7.84,-7.84 -12.69,-18.67 -12.69,-30.63zm25.19 -18.13c-4.62,4.63 -7.48,11.04 -7.48,18.13 0,7.07 2.86,13.48 7.5,18.11 4.63,4.63 11.04,7.5 18.11,7.5 7.09,0 13.5,-2.86 18.11,-7.47l0.03 -0.03c4.61,-4.61 7.46,-11.01 7.47,-18.11 0,-7.07 -2.87,-13.48 -7.5,-18.11 -4.63,-4.63 -11.03,-7.5 -18.11,-7.5 -7.09,0 -13.5,2.86 -18.13,7.48zm48.22 195.35c-8.44,-8.44 -12.66,-19.52 -12.66,-30.61l0 -0.05c0,-11.09 4.22,-22.17 12.66,-30.61 8.46,-8.46 19.54,-12.68 30.63,-12.68 76.98,0 28.35,-23.05 55.51,-50.21 10.5,-10.5 27.52,-10.5 38.01,0 8.25,8.25 10.01,20.52 5.3,30.49 -1.3,3.62 -3.39,7.01 -6.29,9.91 -7.15,7.14 -17.31,9.42 -26.39,6.84 -13.65,-0.83 -22.9,-2.3 -22.86,46.26l0 0.05c-0.01,11.1 -4.23,22.18 -12.66,30.61 -8.46,8.46 -19.55,12.68 -30.63,12.68 -11.08,0 -22.17,-4.23 -30.63,-12.68zm4.99 -30.63c0.01,6.54 2.52,13.1 7.53,18.11 5,5 11.56,7.5 18.11,7.5 6.55,0 13.11,-2.5 18.11,-7.5 5.02,-5.02 7.53,-11.56 7.52,-18.08l0 -0.05c0,-6.52 -2.51,-13.07 -7.52,-18.08 -5,-5 -11.56,-7.5 -18.11,-7.5 -6.55,-0 -13.1,2.5 -18.11,7.5 -5.01,5.01 -7.52,11.57 -7.53,18.11zm172.23 104.04c-11.94,0 -22.76,-4.85 -30.6,-12.69l-0.03 -0.03c-7.84,-7.84 -12.69,-18.66 -12.69,-30.6 0,-11.96 4.85,-22.79 12.69,-30.63 54.43,-54.43 3.75,-36.34 3.75,-74.76 0,-14.85 12.03,-26.88 26.88,-26.88 14.85,0 26.88,12.03 26.88,26.88 0,38.33 -50.68,20.46 3.71,74.76l0.03 0.03c7.84,7.85 12.69,18.67 12.69,30.59 0,11.96 -4.85,22.79 -12.69,30.63 -7.84,7.84 -18.67,12.69 -30.63,12.69zm-18.13 -25.19c4.63,4.62 11.04,7.48 18.13,7.48 7.07,0 13.48,-2.87 18.11,-7.5 4.63,-4.63 7.5,-11.04 7.5,-18.11 0,-7.09 -2.85,-13.5 -7.46,-18.11l-0.03 -0.03c-4.61,-4.61 -11.01,-7.46 -18.11,-7.46 -7.07,0 -13.48,2.86 -18.11,7.5 -4.63,4.63 -7.5,11.03 -7.5,18.11 0,7.09 2.86,13.5 7.48,18.13zm195.35 -48.22c-8.44,8.44 -19.52,12.66 -30.61,12.66l-0.05 0c-11.09,-0 -22.17,-4.22 -30.61,-12.66 -8.46,-8.46 -12.68,-19.54 -12.68,-30.63 0,-48.66 -9.21,-47.13 -22.85,-46.28 -9.07,2.58 -19.23,0.29 -26.38,-6.85 -2.9,-2.9 -5,-6.3 -6.3,-9.93 -4.7,-9.97 -2.93,-22.23 5.31,-30.47 10.5,-10.5 27.52,-10.5 38.01,0 27.1,27.1 -21.37,50.31 55.49,50.23l0.05 0c11.1,0.01 22.18,4.23 30.6,12.66 8.46,8.46 12.69,19.55 12.69,30.63 0,11.08 -4.23,22.17 -12.68,30.63zm-30.63 -5c6.54,-0.01 13.1,-2.52 18.11,-7.53 5,-5 7.5,-11.56 7.5,-18.11 0,-6.55 -2.5,-13.1 -7.5,-18.11 -5.02,-5.02 -11.56,-7.53 -18.08,-7.52l-0.05 0c-6.52,-0 -13.07,2.51 -18.08,7.52 -5,5 -7.5,11.56 -7.5,18.11 -0,6.55 2.5,13.1 7.5,18.11 5.01,5.01 11.56,7.52 18.11,7.53zm104.04 -172.23c0,11.94 -4.85,22.76 -12.69,30.6l-0.03 0.03c-7.84,7.84 -18.66,12.69 -30.6,12.69 -11.96,0 -22.79,-4.85 -30.63,-12.69 -37.24,-37.24 -40.54,-25.28 -51.2,-14.01 -4.85,7.04 -12.96,11.66 -22.16,11.66 -7.78,0 -14.79,-3.31 -19.7,-8.6 -5.27,-4.91 -8.58,-11.91 -8.58,-19.68 0,-14.84 12.04,-26.88 26.88,-26.88 38.33,0 20.46,50.68 74.76,-3.71l0.03 -0.03c7.85,-7.84 18.67,-12.69 30.59,-12.69 11.96,0 22.79,4.85 30.63,12.69 7.84,7.84 12.69,18.67 12.69,30.63zm-25.19 18.13c4.62,-4.63 7.48,-11.04 7.48,-18.13 0,-7.07 -2.86,-13.48 -7.5,-18.11 -4.63,-4.63 -11.04,-7.5 -18.11,-7.5 -7.09,0 -13.5,2.86 -18.11,7.46l-0.03 0.03c-4.61,4.61 -7.46,11.01 -7.47,18.11 0,7.07 2.87,13.48 7.5,18.11 4.63,4.63 11.03,7.5 18.11,7.5 7.09,0 13.5,-2.86 18.13,-7.48zm-225.45 -268.76c11.94,0 22.76,4.85 30.6,12.69l0.03 0.03c7.84,7.84 12.69,18.66 12.69,30.6 0,11.96 -4.85,22.79 -12.69,30.63 -54.43,54.43 -3.75,36.34 -3.75,74.76 0,14.84 -12.03,26.88 -26.88,26.88 -14.85,0 -26.88,-12.04 -26.88,-26.88 0,-38.33 50.69,-20.46 -3.71,-74.76l-0.03 -0.03c-7.84,-7.85 -12.69,-18.67 -12.69,-30.59 0,-11.96 4.85,-22.79 12.69,-30.63 7.84,-7.84 18.67,-12.69 30.63,-12.69zm18.13 25.19c-4.63,-4.62 -11.04,-7.48 -18.13,-7.48 -7.07,0 -13.48,2.87 -18.11,7.5 -4.63,4.63 -7.5,11.04 -7.5,18.11 0,7.1 2.85,13.5 7.46,18.11l0.03 0.03c4.61,4.61 11.01,7.47 18.11,7.47 7.07,0 13.48,-2.87 18.11,-7.5 4.63,-4.63 7.5,-11.03 7.5,-18.11 0,-7.09 -2.86,-13.5 -7.48,-18.13zm-18.13 180.41c24.87,0 45.03,20.16 45.03,45.03 0,24.87 -20.16,45.03 -45.03,45.03 -24.87,0 -45.03,-20.16 -45.03,-45.03 0,-24.87 20.16,-45.03 45.03,-45.03zm172.23 -101.56c-0.01,-6.54 -2.52,-13.1 -7.53,-18.11 -5,-5 -11.56,-7.5 -18.11,-7.5 -6.55,0 -13.11,2.5 -18.11,7.5 -5.02,5.02 -7.53,11.56 -7.52,18.08l0 0.05c-0,6.52 2.51,13.07 7.52,18.08 5,5 11.56,7.5 18.11,7.5 6.55,0 13.1,-2.5 18.11,-7.5 5.01,-5.01 7.52,-11.56 7.53,-18.11z"/>
  <path class="fil1" d="M778.42 257.14c0,-68.61 -55.95,-124.21 -124.91,-124.21l-76.35 0 0 248.06 84.44 0c65.09,-4.22 116.82,-58.06 116.82,-123.85zm-188.24 111.54l0 -223.43 63.33 0c61.57,0 111.54,49.96 111.54,111.89 0,58.76 -47.15,106.61 -104.5,111.54l-70.37 0zm378.94 -177.33l0 21.82c-17.94,-15.48 -45.74,-25.33 -74.94,-25.33 -54.89,0 -98.52,43.98 -98.52,97.11 0,53.48 43.63,97.46 98.52,97.46 30.61,0 56.3,-9.5 74.94,-24.28l0 22.87 12.32 0 0 -189.65 -12.32 0zm0 152c-17.24,16.89 -42.93,26.74 -73.89,26.74 -48.2,0 -87.26,-38 -87.26,-85.15 0,-46.8 39.05,-84.8 87.26,-84.8 30.26,0 56.3,10.2 73.89,27.44l0 115.76zm151.3 -140.39l0 -11.61 -73.89 0 0 -75.65 -13.02 0 0 75.65 -34.83 0 0 11.61 34.83 0 0 124.56c0,36.24 23.57,54.89 52.43,54.89 15.83,0 27.09,-2.46 33.78,-4.22l0 -11.61c-6.33,1.76 -15.83,3.52 -31.31,3.52 -24.63,0 -41.87,-13.72 -41.87,-49.61l0 -117.52 73.89 0zm179.09 -11.61l0 21.82c-17.94,-15.48 -45.74,-25.33 -74.94,-25.33 -54.89,0 -98.52,43.98 -98.52,97.11 0,53.48 43.63,97.46 98.52,97.46 30.61,0 56.3,-9.5 74.94,-24.28l0 22.87 12.32 0 0 -189.65 -12.32 0zm0 152c-17.24,16.89 -42.93,26.74 -73.89,26.74 -48.2,0 -87.26,-38 -87.26,-85.15 0,-46.8 39.05,-84.8 87.26,-84.8 30.26,0 56.3,10.2 73.89,27.44l0 115.76zm44.33 37.65l61.57 0 0 -87.26 98.52 0 0 87.26 61.57 0 0 -250.17 -61.57 0 0 106.61 -98.52 0 0 -106.61 -61.57 0 0 250.17zm318.82 4.57c26.74,0 45.74,-8.8 58.76,-21.82l0 17.24 57.35 0 0 -192.82 -60.87 0 0 126.32c-7.74,9.5 -19.35,17.59 -35.54,17.59 -20.06,0 -30.26,-11.96 -30.26,-45.04l0 -98.87 -60.87 0 0 116.46c0,57 26.04,80.93 71.43,80.93zm311.79 -140.39c20.06,-8.09 32.72,-26.04 32.72,-54.54 0,-38.7 -29.56,-59.82 -83.39,-59.82l-117.17 0 0 250.17 121.74 0c67.91,0 97.81,-26.74 97.81,-74.59 0,-33.07 -22.17,-54.89 -51.72,-61.22l0 0zm-106.26 -62.98l51.37 0c18.3,0 28.85,8.8 28.85,24.98 0,16.54 -10.2,25.33 -30.26,25.33l-49.96 0 0 -50.31zm60.52 146.72l-60.52 0 0 -49.96 58.41 0c23.22,0 35.89,9.5 35.89,24.98 0,15.83 -11.96,24.98 -33.78,24.98l0 0zm116.86 52.07l62.98 0 0 -250.17 -62.98 0 0 250.17z"/>
 </g>
</svg>
